<svg id="Capa_1" enable-background="new 0 0 512 512" height="512" viewBox="0 0 512 512" width="512" xmlns="http://www.w3.org/2000/svg"><g><path d="m392.301 58.122h-20.361c.378-.897.588-1.883.588-2.918 0-4.15-3.364-7.514-7.514-7.514s-7.514 3.364-7.514 7.514c0 1.035.209 2.021.588 2.918h-48.579c-2.721-4.24-4.929-9.144-6.316-14.813l-2.916-11.912c-1.09-4.454-5.054-7.565-9.639-7.565-4.586 0-8.55 3.111-9.64 7.565l-2.915 11.912c-1.388 5.668-3.595 10.573-6.317 14.813h-130.331c-20.143 0-36.53 16.387-36.53 36.53v111.507c-6.349 6.964-14.033 11.54-20.683 14.482-.393.174-.77.381-1.128.62-2.903 1.935-4.636 5.173-4.636 8.662s1.733 6.727 4.636 8.663c.358.239.735.446 1.128.62 11.913 5.27 27.147 15.774 32.069 35.881l2.916 11.912c1.09 4.454 5.054 7.565 9.64 7.565 4.585 0 8.549-3.111 9.64-7.565l2.915-11.912c4.923-20.107 20.157-30.611 32.07-35.881.393-.174.77-.381 1.127-.62 2.903-1.935 4.636-5.173 4.636-8.663 0-3.489-1.733-6.727-4.636-8.662-.358-.239-.735-.446-1.127-.62-11.913-5.27-27.148-15.774-32.07-35.882l-2.916-11.912c-1.09-4.454-5.054-7.565-9.639-7.565-3.868 0-7.286 2.217-8.918 5.583v-14.4c.092.003.182.014.274.014 4.15 0 7.514-3.364 7.514-7.514s-3.364-7.514-7.514-7.514c-.093 0-.183.011-.274.014v-46.813c0-11.858 9.648-21.506 21.506-21.506h62.222c.698 3.428 3.729 6.008 7.363 6.008s6.665-2.58 7.363-6.008h38.536c-3.694 2.529-7.442 4.51-10.91 6.044-.393.174-.77.381-1.128.62-2.903 1.935-4.636 5.173-4.636 8.663s1.733 6.727 4.636 8.663c.358.239.735.446 1.128.62 11.913 5.27 27.147 15.774 32.069 35.881l2.916 11.912c1.09 4.454 5.054 7.565 9.64 7.565 4.585 0 8.549-3.111 9.64-7.565l2.915-11.912c4.923-20.107 20.157-30.611 32.07-35.881.393-.174.77-.381 1.127-.62 2.903-1.935 4.636-5.173 4.636-8.663s-1.733-6.727-4.636-8.663c-.358-.239-.735-.446-1.127-.62-3.468-1.534-7.216-3.515-10.91-6.044h67.951c2.258 0 4.095 1.837 4.095 4.095v133.66c0 4.149 3.363 7.512 7.512 7.512s7.512-3.363 7.512-7.512v-133.66c.001-10.543-8.576-19.119-19.118-19.119zm-263.454 136.975c5.249 14.556 15.392 26.401 29.804 34.827-14.412 8.424-24.555 20.27-29.804 34.826-5.249-14.556-15.392-26.402-29.803-34.827 14.411-8.425 24.554-20.271 29.803-34.826zm161.788-71.798c-5.25-14.556-15.393-26.402-29.804-34.827 14.411-8.425 24.555-20.271 29.804-34.827 5.25 14.556 15.393 26.402 29.804 34.827-14.411 8.425-24.555 20.271-29.804 34.827z"/><path d="m403.907 238.988c-4.149 0-7.512 3.363-7.512 7.512v129.523c0 2.258-1.837 4.095-4.095 4.095h-244.492c-9.158.029-19.732 3.153-27.879 10.318v-42.291c0-4.149-3.363-7.512-7.512-7.512s-7.512 3.363-7.512 7.512v74.877c0 23.657 19.246 42.903 42.903 42.903h103.734v34.575c0 4.351 2.41 8.277 6.29 10.247 2.078 1.179 7.536 2.162 11.984-.972l23.703-17.334 23.702 17.334c3.512 2.569 8.105 2.941 11.984.972 3.88-1.97 6.29-5.895 6.29-10.247v-34.577h46.422c4.323 0 8.18-2.577 9.824-6.565 1.657-4.019.729-8.602-2.366-11.677-6.62-6.577-10.266-15.335-10.266-24.661 0-11.072 5.221-21.361 14.06-27.923 10.137-.459 18.25-8.826 18.25-19.075v-129.522c.001-4.149-3.363-7.512-7.512-7.512zm-105.954 238.082c-2.64-1.931-6.228-1.932-8.869 0l-22.518 16.468v-65.368h53.904v65.368zm74.653-26.171h-37.111v-23.56c2.426-1.246 4.089-3.767 4.089-6.682 0-4.149-3.363-7.512-7.512-7.512h-110.336c-4.149 0-7.512 3.363-7.512 7.512s3.363 7.512 7.512 7.512h29.805v22.729h-103.733c-15.372 0-27.878-12.506-27.878-27.878 0-15.373 12.506-27.879 27.879-27.879h224.798c-5.483 8.106-8.522 17.765-8.522 27.879 0 10.089 2.979 19.715 8.521 27.879z"/><path d="m483.565 175.076c-.357-.238-.734-.445-1.126-.619-9.121-4.035-14.786-10.328-16.836-18.703l-1.693-6.917v-.001c-.98-4-4.54-6.792-8.657-6.792h-.001c-4.118.001-7.677 2.795-8.656 6.794l-1.693 6.917c-2.051 8.375-7.715 14.668-16.836 18.703-.393.174-.769.381-1.126.619-2.565 1.709-4.096 4.569-4.096 7.652 0 3.082 1.531 5.943 4.096 7.652.357.238.734.445 1.126.618 9.121 4.036 14.786 10.329 16.836 18.703l1.693 6.917c.979 4 4.538 6.794 8.656 6.795h.001c4.118 0 7.677-2.793 8.658-6.794l1.693-6.917c2.05-8.374 7.715-14.667 16.836-18.703.392-.174.769-.38 1.126-.619 2.565-1.709 4.096-4.569 4.096-7.652-.001-3.083-1.532-5.944-4.097-7.653zm-28.313 20.392c-2.833-4.924-6.711-9.202-11.551-12.74 4.84-3.537 8.718-7.816 11.551-12.74 2.833 4.924 6.711 9.202 11.551 12.74-4.84 3.538-8.718 7.816-11.551 12.74z"/><path d="m85.062 369.727c-.358-.239-.735-.446-1.128-.62-9.121-4.035-14.786-10.328-16.836-18.703l-1.693-6.917v-.001c-.98-4-4.54-6.792-8.657-6.792h-.001c-4.118.001-7.677 2.795-8.656 6.794l-1.693 6.917c-2.051 8.375-7.715 14.668-16.836 18.703-.393.174-.77.381-1.128.62-2.564 1.709-4.095 4.569-4.095 7.651 0 3.081 1.53 5.941 4.095 7.651.358.239.735.446 1.127.62 9.122 4.035 14.786 10.328 16.836 18.703l1.693 6.917c.979 4 4.538 6.794 8.656 6.795h.001c4.118 0 7.677-2.793 8.658-6.794l1.693-6.917c2.05-8.374 7.715-14.667 16.836-18.703.393-.174.77-.381 1.127-.62 2.564-1.709 4.095-4.569 4.095-7.651 0-3.083-1.53-5.944-4.094-7.653zm-28.315 20.391c-2.833-4.924-6.711-9.202-11.551-12.74 4.84-3.537 8.718-7.816 11.551-12.74 2.833 4.924 6.711 9.202 11.551 12.74-4.839 3.538-8.717 7.816-11.551 12.74z"/><circle cx="154.033" cy="152.452" r="7.514"/><circle cx="183.196" cy="169.331" r="7.514"/><path d="m195.711 196.655c0 4.15 3.364 7.514 7.514 7.514s7.514-3.364 7.514-7.514-3.364-7.514-7.514-7.514-7.514 3.364-7.514 7.514z"/><ellipse cx="210.24" cy="229.83" rx="7.514" ry="7.514" transform="matrix(.383 -.924 .924 .383 -82.55 336.114)"/><circle cx="203.225" cy="263.004" r="7.514"/><path d="m175.681 290.396c0 4.15 3.364 7.514 7.514 7.514s7.514-3.364 7.514-7.514-3.364-7.514-7.514-7.514c-4.149 0-7.514 3.364-7.514 7.514z"/><circle cx="154.033" cy="307.343" r="7.514"/><path d="m127.719 310.881c0-4.15-3.364-7.514-7.514-7.514s-7.514 3.364-7.514 7.514 3.364 7.514 7.514 7.514 7.514-3.364 7.514-7.514z"/><ellipse cx="88.045" cy="300.451" rx="7.514" ry="7.514" transform="matrix(.987 -.16 .16 .987 -46.99 17.983)"/><path d="m63.033 270.304c-4.15 0-7.514 3.364-7.514 7.514s3.364 7.514 7.514 7.514 7.514-3.364 7.514-7.514-3.364-7.514-7.514-7.514z"/><path d="m49.233 254.439c4.15 0 7.514-3.364 7.514-7.514s-3.364-7.514-7.514-7.514-7.514 3.364-7.514 7.514 3.364 7.514 7.514 7.514z"/><path d="m49.233 220.604c4.15 0 7.514-3.364 7.514-7.514s-3.364-7.514-7.514-7.514-7.514 3.364-7.514 7.514 3.364 7.514 7.514 7.514z"/><circle cx="62.931" cy="182.162" r="7.514"/><ellipse cx="88.045" cy="159.394" rx="7.514" ry="7.514" transform="matrix(.383 -.924 .924 .383 -92.91 179.74)"/><path d="m315.821 18.515c4.15 0 7.514-3.364 7.514-7.514s-3.364-7.514-7.514-7.514-7.514 3.364-7.514 7.514 3.364 7.514 7.514 7.514z"/><path d="m344.983 35.395c4.15 0 7.514-3.364 7.514-7.514s-3.364-7.514-7.514-7.514-7.514 3.364-7.514 7.514c0 4.149 3.364 7.514 7.514 7.514z"/><circle cx="372.027" cy="88.379" r="7.514"/><path d="m357.498 121.554c0 4.15 3.364 7.514 7.514 7.514s7.514-3.364 7.514-7.514-3.364-7.514-7.514-7.514-7.514 3.364-7.514 7.514z"/><path d="m352.497 148.945c0-4.15-3.364-7.514-7.514-7.514s-7.514 3.364-7.514 7.514 3.364 7.514 7.514 7.514 7.514-3.364 7.514-7.514z"/><path d="m323.335 165.893c0-4.15-3.364-7.514-7.514-7.514s-7.514 3.364-7.514 7.514 3.364 7.514 7.514 7.514 7.514-3.364 7.514-7.514z"/><path d="m289.506 169.43c0-4.15-3.364-7.514-7.514-7.514s-7.514 3.364-7.514 7.514 3.364 7.514 7.514 7.514 7.514-3.364 7.514-7.514z"/><circle cx="249.832" cy="159.001" r="7.514"/><path d="m224.821 143.882c4.15 0 7.514-3.364 7.514-7.514s-3.364-7.514-7.514-7.514-7.514 3.364-7.514 7.514c-.001 4.15 3.364 7.514 7.514 7.514z"/><path d="m211.021 97.959c-4.15 0-7.514 3.364-7.514 7.514s3.364 7.514 7.514 7.514 7.514-3.364 7.514-7.514c0-4.149-3.364-7.514-7.514-7.514z"/><path d="m224.718 48.226c4.15 0 7.514-3.364 7.514-7.515 0-4.15-3.364-7.514-7.514-7.514s-7.514 3.364-7.514 7.514c0 4.151 3.364 7.515 7.514 7.515z"/><circle cx="249.832" cy="17.944" r="7.514"/><ellipse cx="281.992" cy="7.514" rx="7.514" ry="7.514" transform="matrix(.987 -.16 .16 .987 2.438 45.267)"/></g></svg>